HIERARCHY
ROOT Hips
{
	OFFSET 0.00000 0.00000 0.00000
	CHANNELS 6 Xposition Yposition Zposition Zrotation Yrotation Xrotation 
	JOINT LHipJoint
	{
		OFFSET 0 0 0
		CHANNELS 3 Zrotation Yrotation Xrotation
		JOINT LeftHip
		{
			OFFSET 1.58895 -1.83665 0.71753
			CHANNELS 3 Zrotation Yrotation Xrotation
			JOINT LeftKnee
			{
				OFFSET 2.50528 -6.88321 0.00000
				CHANNELS 3 Zrotation Yrotation Xrotation
				JOINT LeftAnkle
				{
					OFFSET 2.63244 -7.23257 0.00000
					CHANNELS 3 Zrotation Yrotation Xrotation
					JOINT LeftToe
					{
						OFFSET 0.23691 -0.65090 1.72750
						CHANNELS 3 Zrotation Yrotation Xrotation
						End Site
						{
							OFFSET 0.00000 -0.00000 0.92561
						}
					}
				}
			}
		}
	}
	JOINT RHipJoint
	{
		OFFSET 0 0 0
		CHANNELS 3 Zrotation Yrotation Xrotation
		JOINT RightHip
		{
			OFFSET -1.51435 -1.83665 0.71753
			CHANNELS 3 Zrotation Yrotation Xrotation
			JOINT RightKnee
			{
				OFFSET -2.54551 -6.99375 0.00000
				CHANNELS 3 Zrotation Yrotation Xrotation
				JOINT RightAnkle
				{
					OFFSET -2.66027 -7.30903 0.00000
					CHANNELS 3 Zrotation Yrotation Xrotation
					JOINT RightToe
					{
						OFFSET -0.22981 -0.63138 2.03959
						CHANNELS 3 Zrotation Yrotation Xrotation
						End Site
						{
							OFFSET -0.00000 -0.00000 1.07060
						}
					}
				}
			}
		}
	}
	JOINT lowerback
	{
		OFFSET 0 0 0
		CHANNELS 3 Zrotation Yrotation Xrotation
		JOINT Chest
		{
			OFFSET -0.02651 1.86275 -0.11152
			CHANNELS 3 Zrotation Yrotation Xrotation
			JOINT Chest2
			{
				OFFSET 0.01019 1.86224 0.04087
				CHANNELS 3 Zrotation Yrotation Xrotation
				JOINT lowerneck
				{
					OFFSET 0 0 0
					CHANNELS 3 Zrotation Yrotation Xrotation
					JOINT Neck
					{
						OFFSET -0.01926 1.80512 0.08867
						CHANNELS 3 Zrotation Yrotation Xrotation
						JOINT Head
						{
							OFFSET 0.05516 1.76451 -0.38475
							CHANNELS 3 Zrotation Yrotation Xrotation
							End Site
							{
								OFFSET 0.01592 1.82587 -0.14001
							}
						}
					}
				}
				JOINT LeftCollar
				{
					OFFSET 0 0 0
					CHANNELS 3 Zrotation Yrotation Xrotation
					JOINT LeftShoulder
					{
						OFFSET 3.47116 1.51376 0.14491
CHANNELS 3 Zrotation Xrotation Yrotation
						JOINT LeftElbow
						{
OFFSET 0 -4.780950 0.000000
CHANNELS 3 Zrotation Xrotation Yrotation
							JOINT LeftWrist
							{
OFFSET 0 -3.586150 -0.000000
CHANNELS 3 Zrotation Xrotation Yrotation
								JOINT lhand
								{
									OFFSET 0 0 0
CHANNELS 3 Zrotation Xrotation Yrotation
									JOINT LFingers
									{
OFFSET 0 -0.659810 0.000000
CHANNELS 3 Zrotation Xrotation Yrotation
										End Site
										{
OFFSET 0 -0.531960 0.000000
										}
									}
								}
								JOINT LThumb
								{
OFFSET 0 0.000000 0.000000
CHANNELS 3 Zrotation Xrotation Yrotation
									End Site
									{
OFFSET 0 -0.540080 0.540080
									}
								}
							}
						}
					}
				}
				JOINT RightCollar
				{
					OFFSET 0 0 0
					CHANNELS 3 Zrotation Yrotation Xrotation
					JOINT RightShoulder
					{
						OFFSET -3.31725 1.61216 0.35156
CHANNELS 3 Zrotation Xrotation Yrotation
						JOINT RightElbow
						{
OFFSET 0 -4.489130 0.000000
CHANNELS 3 Zrotation Xrotation Yrotation
							JOINT RightWrist
							{
OFFSET 0 -3.705100 0.000000
CHANNELS 3 Zrotation Xrotation Yrotation
								JOINT rhand
								{
									OFFSET 0 0 0
CHANNELS 3 Zrotation Xrotation Yrotation
									JOINT RFingers
									{
OFFSET 0 -0.449140 0.000000
CHANNELS 3 Zrotation Xrotation Yrotation
										End Site
										{
OFFSET 0 -0.362110 0.000000
										}
									}
								}
								JOINT RThumb
								{
OFFSET 0 0.000000 0.000000
CHANNELS 3 Zrotation Xrotation Yrotation
									End Site
									{
OFFSET 0 -0.367630 0.367630
									}
								}
							}
						}
					}
				}
			}
		}
	}
}
MOTION
Frames: 6
Frame Time: 0.008333333333333333
-0.667772 18.757202 5.413123 -3.567958 -6.800385 4.227838 0.000000 0.000000 0.000000 -10.913277 -7.909958 -4.160546 1.393013 7.467067 21.106800 1.879729 9.698154 -30.916484 7.733278 -15.919504 -51.596059 0.000000 0.000000 0.000000 0.000000 0.000000 0.000000 0.000000 0.000000 0.000000 0.000000 0.000000 0.000000 0.000000 0.000000 0.000000 -3.448750 2.490430 5.883745 -1.931265 2.982189 -0.875318 -0.351550 1.536132 -4.280281 0.102309 -4.011259 -8.398606 16.852602 -9.798507 23.420484 4.789898 -2.922706 9.714208 0.000000 0.000000 0.000000 9.674701 -30.053410 -3.850760 142.426490 -46.564768 103.344791 35.472119 -120.270225 24.095233 0.000000 0.000000 0.000000 -7.125000 0.000000 0.000000 3.701595 1.259408 3.626970 0.000000 0.000000 0.000000 -50.762215 -53.910735 52.133937 -122.430931 -55.626416 -87.673587 -15.719980 11.833748 34.558014 0.000000 0.000000 0.000000 7.125000 0.000000 0.000000 21.841418 64.284302 -10.441536
-0.669509 18.757751 5.403477 -3.645744 -6.878579 4.228880 0.000000 0.000000 0.000000 -10.851852 -8.026392 -4.129491 1.397022 7.477305 21.137363 1.888414 9.869854 -31.087556 7.737784 -15.922917 -51.612486 0.000000 0.000000 0.000000 0.000000 0.000000 0.000000 0.000000 0.000000 0.000000 0.000000 0.000000 0.000000 0.000000 0.000000 0.000000 -3.434176 2.525405 5.799752 -1.904255 3.040533 -0.711778 -0.327999 1.561851 -4.064901 0.476064 -3.773461 -8.655681 16.583510 -9.510052 23.649416 4.665471 -2.753141 9.787692 0.000000 0.000000 0.000000 9.239723 -30.347141 -4.547558 142.326079 -46.629802 103.271849 35.270415 -120.031141 24.287972 0.000000 0.000000 0.000000 -7.125000 0.000000 0.000000 3.544372 1.097890 3.482437 0.000000 0.000000 0.000000 -49.063845 -56.084601 53.739627 -123.079946 -55.431347 -88.208608 -14.946607 10.317057 35.028977 0.000000 0.000000 0.000000 7.125000 0.000000 0.000000 23.191378 64.500381 -11.236753
-0.669730 18.758396 5.396028 -3.686488 -6.985317 4.255318 0.000000 0.000000 0.000000 -10.811665 -7.962971 -4.182216 1.397745 7.479204 21.142912 1.880499 9.966234 -31.104500 7.757071 -15.937638 -51.682869 0.000000 0.000000 0.000000 0.000000 0.000000 0.000000 0.000000 0.000000 0.000000 0.000000 0.000000 0.000000 0.000000 0.000000 0.000000 -3.285036 2.582342 5.911999 -1.958883 3.118738 -0.731323 -0.481014 1.597332 -4.138702 1.171962 -3.554471 -8.690751 16.069227 -9.240415 23.942586 4.398803 -2.594486 9.818025 0.000000 0.000000 0.000000 8.945740 -30.250180 -5.253126 142.259190 -46.672932 103.223233 35.008683 -119.942424 24.496695 0.000000 0.000000 0.000000 -7.125000 0.000000 0.000000 3.348383 0.935718 3.298919 0.000000 0.000000 0.000000 -46.664429 -57.825516 55.806569 -123.890475 -55.180485 -88.875045 -14.645471 8.873083 35.476070 0.000000 0.000000 0.000000 7.125000 0.000000 0.000000 24.007673 64.818902 -11.829697
-0.668946 18.758562 5.390755 -3.702328 -7.099977 4.270583 0.000000 0.000000 0.000000 -10.828391 -8.051752 -4.136139 1.395858 7.474367 21.128663 1.895473 10.075419 -31.272072 7.725474 -15.913583 -51.567820 0.000000 0.000000 0.000000 0.000000 0.000000 0.000000 0.000000 0.000000 0.000000 0.000000 0.000000 0.000000 0.000000 0.000000 0.000000 -3.227707 2.590666 5.830864 -1.849409 3.147772 -0.564146 -0.392844 1.609087 -3.922755 1.049274 -3.465607 -8.996620 16.267414 -9.184788 24.053653 4.499863 -2.537347 9.930936 0.000000 0.000000 0.000000 8.494435 -30.243363 -5.776908 142.217465 -46.699906 103.192822 34.779990 -119.865069 24.845940 0.000000 0.000000 0.000000 -7.125000 0.000000 0.000000 3.145474 0.606743 3.116428 0.000000 0.000000 0.000000 -44.411927 -59.672911 57.839939 -124.673184 -54.930048 -89.516615 -15.008693 7.660277 35.648684 0.000000 0.000000 0.000000 7.125000 0.000000 0.000000 23.794772 65.073927 -11.858786
-0.667608 18.758720 5.384963 -3.656050 -7.204026 4.260046 0.000000 0.000000 0.000000 -10.928517 -8.232883 -4.022630 1.392296 7.465180 21.100993 1.919413 10.214494 -31.514939 7.699054 -15.893372 -51.471413 0.000000 0.000000 0.000000 0.000000 0.000000 0.000000 0.000000 0.000000 0.000000 0.000000 0.000000 0.000000 0.000000 0.000000 0.000000 -3.017738 2.611317 6.314506 -1.813757 3.168005 -0.609367 -0.500644 1.616943 -4.232826 1.015194 -3.451986 -9.376536 16.449608 -9.271005 24.245839 4.565992 -2.530124 10.099510 0.000000 0.000000 0.000000 8.075051 -29.900135 -6.528987 142.170343 -46.730164 103.158534 34.640803 -119.891135 25.852578 0.000000 0.000000 0.000000 -7.125000 0.000000 0.000000 2.867602 -0.481715 2.894030 0.000000 0.000000 0.000000 -41.858641 -60.679587 60.117515 -125.383406 -54.695359 -90.097075 -15.421274 6.548896 35.621047 0.000000 0.000000 0.000000 7.125000 0.000000 0.000000 23.303799 65.164258 -11.649997
-0.665952 18.759524 5.380905 -3.579055 -7.247527 4.261464 0.000000 0.000000 0.000000 -11.018991 -8.222400 -4.015119 1.388443 7.455188 21.070977 1.922154 10.208567 -31.527760 7.693927 -15.889402 -51.452569 0.000000 0.000000 0.000000 0.000000 0.000000 0.000000 0.000000 0.000000 0.000000 0.000000 0.000000 0.000000 0.000000 0.000000 0.000000 -3.082085 2.520585 6.193092 -1.589611 3.064140 -0.362783 -0.208818 1.565656 -3.922070 0.847716 -3.386979 -9.658853 16.556710 -9.209532 24.316719 4.642087 -2.487987 10.188488 0.000000 0.000000 0.000000 7.658589 -29.807913 -6.718673 142.166273 -46.732779 103.155553 34.605574 -119.912025 26.495467 0.000000 0.000000 0.000000 -7.125000 0.000000 0.000000 2.720236 -1.189380 2.779203 0.000000 0.000000 0.000000 -40.146279 -61.586930 61.829378 -126.102338 -54.451196 -90.682939 -16.040611 5.622641 35.599130 0.000000 0.000000 0.000000 7.125000 0.000000 0.000000 22.584320 65.317825 -11.352896
